<svg width="1070.000000" height="133.000000" viewBox="0 0 1070 133" fill="none" xmlns="http://www.w3.org/2000/svg" xmlns:xlink="http://www.w3.org/1999/xlink">
	<desc>
			Created with Pixso.
	</desc>
	<defs>
		<clipPath id="clip3_9">
			<rect id="header" rx="-4.000000" width="1062.000000" height="125.000000" transform="translate(4.000000 4.000000)" fill="white" fill-opacity="0"/>
		</clipPath>
	</defs>
	<rect id="header" rx="-4.000000" width="1062.000000" height="125.000000" transform="translate(4.000000 4.000000)" fill="#FFFFFF" fill-opacity="0"/>
	<g clip-path="url(#clip3_9)">
		<path id="personal library" d="M261.69 52.63C275.11 55.11 291.45 59.73 292.69 72.29C293.28 78.15 294.22 96.01 261.97 95.64C241.72 95.64 232.51 82.46 232.51 74.52L247.48 74.52L247.48 75.08C247.48 75.08 245.07 77.87 249.4 83.05C252.47 86.4 257.07 88.63 261.97 88.63C272.44 88.63 278.58 83.73 278.58 77.19C278.58 73.84 276.38 67.11 261.69 64.32C246.33 61.25 233.65 58.46 233.65 44.66C233.65 44.66 232.11 24.97 263.21 24.97C284.72 24.97 291.45 37.65 291.45 43.39L276.38 43.39L276.38 43.11C276.38 43.11 278.86 40.32 273.97 35.73C271.76 33.9 268.11 32.66 263.21 32.35C258.61 32.07 247.48 34.18 247.48 41.87C247.48 48.97 253.62 51.08 261.69 52.63ZM301.04 60.29C301.04 39.46 312.67 24.97 336.36 24.97C359.99 24.97 371.71 39.46 371.71 60.29C371.71 82.18 359.4 94.77 339.06 95.64L333.6 95.64C312.95 94.46 301.04 82.18 301.04 60.29ZM445.04 26.71L445.04 27.36C443.8 28.23 440.73 31.98 440.73 43.02L440.73 77.78C440.73 88.82 443.8 92.17 445.04 93.41L445.04 94L424.2 94L398.96 31.98L398.09 31.98L398.09 77.47C398.09 88.53 401.16 91.89 402.31 93.13L402.31 93.71L379.67 93.71L379.67 93.13C380.82 92.17 383.89 88.53 383.89 77.47L383.89 43.02C383.89 31.98 380.82 28.63 379.67 27.36L379.67 26.71L401.47 26.71L425.75 86.71L426.62 86.71L426.62 43.02C426.62 31.98 423.55 28.63 422.28 27.36L422.28 26.71L445.04 26.71ZM517.04 94L499 94L499 93.13C500.14 92.17 501.39 88.53 497.07 77.47L460.89 77.47L460.6 78.06C456.27 88.82 457.53 92.45 458.68 93.41L458.68 94L449.85 94L470.68 43.02C475 31.98 474.03 28.63 472.89 27.36L472.89 26.71L494.38 26.71L494.38 27.08C493.14 28.23 492.17 31.7 496.51 42.74L517.04 94ZM904.79 94L886.74 94L886.74 93.13C887.89 92.17 889.13 88.53 884.82 77.47L848.63 77.47L848.35 78.06C844.01 88.82 845.28 92.45 846.43 93.41L846.43 94L837.59 94L858.43 43.02C862.74 31.98 861.78 28.63 860.63 27.36L860.63 26.71L882.12 26.71L882.12 27.08C880.88 28.23 879.92 31.7 884.25 42.74L904.79 94ZM40.12 26.99L69.88 26.99C74.76 26.99 98.48 26.99 99.06 47.64C99.06 69.41 76.03 69.41 70.17 69.41L58.54 69.41L58.54 77.78C58.54 88.82 61.61 92.17 62.76 93.41L62.76 94L40.12 94L40.12 93.41C41.27 92.45 44.34 88.82 44.34 77.78L44.34 43.3C44.34 32.26 41.27 28.91 40.12 27.67L40.12 26.99ZM157.13 38.71C155.89 37.44 152.54 34.37 141.5 34.37L123.64 34.37L123.64 56.26L147.92 56.26L147.92 63.27L123.64 63.27L123.64 86.61L141.5 86.61C152.54 86.61 155.89 83.54 157.13 82.37L157.81 82.37L157.81 94L105.59 94L105.59 93.41C106.74 92.45 109.81 88.82 109.81 77.78L109.81 43.3C109.81 32.26 106.74 28.91 105.59 27.67L105.59 26.99L157.81 26.99L157.81 38.71L157.13 38.71ZM223.75 47.92C223.75 60.2 216.09 65.78 208.68 67.89L225.58 93.13L225.58 94L207.72 94L207.72 93.41C208.99 92.17 208.68 88.82 201.3 77.78L195.84 69.41L183.53 69.41L183.53 77.78C183.53 88.82 186.6 92.17 187.75 93.41L187.75 94L165.11 94L165.11 93.41C166.26 92.45 169.33 88.82 169.33 77.78L169.33 43.3C169.33 32.26 166.26 28.91 165.11 27.67L165.11 26.99L194.88 26.99C200.06 26.99 223.75 26.99 223.75 47.92ZM558.03 86.99C569.07 86.99 572.54 83.92 573.69 82.67L573.69 82.37L574.07 82.37L574.07 94L521.85 94L521.85 93.41C523 92.45 526.07 88.82 526.07 77.78L526.07 43.3C526.07 32.26 523 28.91 521.85 27.67L521.85 26.99L544.49 26.99L544.49 27.67C543.34 28.53 540.27 32.26 540.27 43.3L540.27 86.99L558.03 86.99ZM651.25 86.99C662.29 86.99 665.76 83.92 666.91 82.67L666.91 82.37L667.28 82.37L667.28 94L615.06 94L615.06 93.41C616.21 92.45 619.28 88.82 619.28 77.78L619.28 43.3C619.28 32.26 616.21 28.91 615.06 27.67L615.06 26.99L637.7 26.99L637.7 27.67C636.56 28.53 633.49 32.26 633.49 43.3L633.49 86.99L651.25 86.99ZM695.11 26.99L695.11 27.67C693.96 28.53 690.89 32.26 690.89 43.3L690.89 77.78C690.89 88.82 693.96 92.17 695.11 93.41L695.11 94L672.47 94L672.47 93.41C673.62 92.45 676.69 88.82 676.69 77.78L676.69 43.3C676.69 32.26 673.62 28.91 672.47 27.67L672.47 26.99L695.11 26.99ZM831.72 47.92C831.72 60.2 824.06 65.78 816.65 67.89L833.55 93.13L833.55 94L815.69 94L815.69 93.41C816.95 92.17 816.65 88.82 809.27 77.78L803.81 69.41L791.5 69.41L791.5 77.78C791.5 88.82 794.57 92.17 795.72 93.41L795.72 94L773.08 94L773.08 93.41C774.23 92.45 777.3 88.82 777.3 77.78L777.3 43.3C777.3 32.26 774.23 28.91 773.08 27.67L773.08 26.99L802.84 26.99C808.02 26.99 831.72 26.99 831.72 47.92ZM968.23 47.92C968.23 60.2 960.57 65.78 953.16 67.89L970.06 93.13L970.06 94L952.2 94L952.2 93.41C953.47 92.17 953.16 88.82 945.78 77.78L940.32 69.41L928.01 69.41L928.01 77.78C928.01 88.82 931.08 92.17 932.23 93.41L932.23 94L909.59 94L909.59 93.41C910.74 92.45 913.81 88.82 913.81 77.78L913.81 43.3C913.81 32.26 910.74 28.91 909.59 27.67L909.59 26.99L939.36 26.99C944.54 26.99 968.23 26.99 968.23 47.92ZM1033.23 26.99L1009.23 64.82L1009.23 78.06C1009.23 88.82 1012.3 92.17 1013.57 93.41L1013.57 94L990.8 94L990.8 93.41C992.05 92.17 995.12 88.82 995.12 78.06L995.12 66.06L971.21 26.99L989.26 26.99L989.26 27.67C988.41 28.53 988.11 31.3 992.05 38.99L1005.29 61.16L1006.16 61.16L1021.23 36.6C1024.02 30.74 1023.46 28.53 1022.5 27.67L1022.5 26.99L1033.23 26.99ZM748.02 59.05C754.16 59.05 759.06 62.12 761.54 64.53C764.33 67.3 765.88 70.96 765.2 75.57C765.2 81.13 762.81 85.75 758.19 89.1C753.6 92.45 745.91 94 735.74 94L702.9 94L702.9 93.41C704.05 92.45 707.12 88.82 707.12 77.78L707.12 43.3C707.12 32.26 704.05 28.91 702.9 27.67L702.9 27.08L732.67 27.08C737.54 27.08 741.88 27.36 745.51 28.23C749.26 29.19 752.05 30.43 754.44 31.98C756.95 33.53 758.47 35.33 759.74 37.56C760.89 39.67 761.54 41.78 761.54 44.57C761.54 47.92 760.61 50.99 758.78 53.47C756.95 55.6 752.33 58.67 748.02 58.67L748.02 59.05ZM316.7 60.29C316.7 79.98 320.33 88.63 336.36 88.63C352.61 88.63 355.96 80.26 355.96 60.29C355.96 40.32 352.3 31.79 336.36 31.79C320.33 31.79 316.7 40.72 316.7 60.29ZM734.19 34.09L721.63 34.09L721.63 55.98L734.19 55.98C743.4 55.98 748.02 52.23 748.02 44.57C748.02 41.19 747.06 38.71 744.67 36.88C742.16 35.05 738.81 34.09 734.19 34.09ZM58.17 62.4L69.88 62.4C69.88 62.4 84.65 62.99 84.65 47.92C84.65 34.09 69.88 34.37 69.88 34.37L58.17 34.37L58.17 62.4ZM183.16 62.4L194.88 62.4C194.88 62.4 209.64 62.99 209.64 47.92C209.64 34.09 194.88 34.37 194.88 34.37L183.16 34.37L183.16 62.4ZM791.13 62.4L802.84 62.4C802.84 62.4 817.61 62.99 817.61 47.92C817.61 34.09 802.84 34.37 802.84 34.37L791.13 34.37L791.13 62.4ZM927.64 62.4L939.36 62.4C939.36 62.4 954.12 62.99 954.12 47.92C954.12 34.09 939.36 34.37 939.36 34.37L927.64 34.37L927.64 62.4ZM478.35 35.05L463.96 70.37L493.72 70.37L479.31 35.05L478.35 35.05ZM866.09 35.05L851.7 70.37L881.47 70.37L867.05 35.05L866.09 35.05ZM736.98 86.71C741.88 86.71 745.51 85.75 748.02 83.92C750.5 82.09 751.68 79.02 751.68 75.27C751.68 71.33 750.5 68.26 748.02 66.34C745.51 64.23 741.88 63.27 736.98 63.27L721.63 63.27L721.63 86.71L736.98 86.71Z" fill="#1D313C" fill-opacity="1.000000" fill-rule="evenodd"/>
	</g>
	<rect id="header" rx="-4.000000" width="1062.000000" height="125.000000" transform="translate(4.000000 4.000000)" stroke="#1C313C" stroke-opacity="1.000000" stroke-width="8.000000"/>
</svg>
